<?xml version="1.0" encoding="utf-8"?>
<!-- Generator: Adobe Illustrator 16.0.0, SVG Export Plug-In . SVG Version: 6.00 Build 0)  -->
<!DOCTYPE svg PUBLIC "-//W3C//DTD SVG 1.1//EN" "http://www.w3.org/Graphics/SVG/1.1/DTD/svg11.dtd">
<svg version="1.1" id="Layer_1" xmlns="http://www.w3.org/2000/svg" xmlns:xlink="http://www.w3.org/1999/xlink" x="0px" y="0px"
	 width="260px" height="260px" viewBox="0 0 260 260" enable-background="new 0 0 260 260" xml:space="preserve">
<g>
	<path fill="#231F20" d="M223.012,258.874H23.313c-12.237,0-22.192-11.121-22.192-24.791V39.587c0-13.67,9.956-24.792,22.192-24.792
		h99.849c6.649,0,12.039,5.39,12.039,12.039s-5.39,12.039-12.039,12.039h-97.9c-0.039,0.204-0.064,0.443-0.064,0.715v194.496
		c0,0.271,0.025,0.51,0.064,0.714h195.801c0.039-0.204,0.064-0.442,0.064-0.714v-97.246c0-6.648,5.39-12.039,12.038-12.039
		c6.649,0,12.039,5.39,12.039,12.039v97.246C245.204,247.753,235.248,258.874,223.012,258.874z"/>
	<g>
		<polygon fill="#231F20" points="135.429,137.726 122.275,124.57 221.126,25.719 195.407,0 260,0 260,13.156 260,64.593 
			234.281,38.875 		"/>
	</g>
</g>
</svg>
